HIERARCHY
ROOT Root
{
  OFFSET 0.0 0.0 0.0
  CHANNELS 6 Xposition Yposition Zposition Zrotation Yrotation Xrotation
  JOINT Hips
  {
    OFFSET 0.0 100.0 0.0
    CHANNELS 6 Xposition Yposition Zposition Zrotation Yrotation Xrotation
    JOINT Spine1
    {
      OFFSET -0.013727 5.003763 -0.053727
      CHANNELS 3 Zrotation Yrotation Xrotation
      JOINT Spine2
      {
        OFFSET -0.0 7.125301 -0.029825
        CHANNELS 3 Zrotation Yrotation Xrotation
        JOINT Chest
        {
          OFFSET -1e-06 7.550063 -0.815971
          CHANNELS 3 Zrotation Yrotation Xrotation
          JOINT Neck1
          {
            OFFSET -0.181677 26.311295 -0.553348
            CHANNELS 3 Zrotation Yrotation Xrotation
            JOINT Neck2
            {
              OFFSET -3e-06 7.709397 2.302585
              CHANNELS 3 Zrotation Yrotation Xrotation
              JOINT Head
              {
                OFFSET -5e-06 6.128916 1.953709
                CHANNELS 3 Zrotation Yrotation Xrotation
                JOINT HeadEnd
                {
                  OFFSET 0.003598 16.065403 -1.835379
                  CHANNELS 3 Zrotation Yrotation Xrotation
                }
                JOINT Jaw
                {
                  OFFSET 0.002637 0.475592 3.094941
                  CHANNELS 3 Zrotation Yrotation Xrotation
                }
                JOINT LeftEye
                {
                  OFFSET 3.206381 5.380205 7.586883
                  CHANNELS 3 Zrotation Yrotation Xrotation
                }
                JOINT RightEye
                {
                  OFFSET -3.22244 5.361869 7.558234
                  CHANNELS 3 Zrotation Yrotation Xrotation
                }
              }
            }
          }
          JOINT LeftShoulder
          {
            OFFSET 1.621652 23.237164 5.113413
            CHANNELS 3 Zrotation Yrotation Xrotation
            JOINT LeftArm
            {
              OFFSET 14.919846 2e-06 -5.502326
              CHANNELS 3 Zrotation Yrotation Xrotation
              JOINT LeftForeArm
              {
                OFFSET 28.739307 0.0 -0.002588
                CHANNELS 3 Zrotation Yrotation Xrotation
                JOINT LeftHand
                {
                  OFFSET 27.093981 -1e-06 0.002609
                  CHANNELS 3 Zrotation Yrotation Xrotation
                  JOINT LeftHandThumb1
                  {
                    OFFSET 2.276482 -1.392045 3.191413
                    CHANNELS 3 Zrotation Yrotation Xrotation
                    JOINT LeftHandThumb2
                    {
                      OFFSET 4.012836 -1.828127 1.641654
                      CHANNELS 3 Zrotation Yrotation Xrotation
                      JOINT LeftHandThumb3
                      {
                        OFFSET 2.798515 0.0 -3e-06
                        CHANNELS 3 Zrotation Yrotation Xrotation
                        JOINT LeftHandThumbEnd
                        {
                          OFFSET 3.180793 -4e-06 4e-06
                          CHANNELS 3 Zrotation Yrotation Xrotation
                        }
                      }
                    }
                  }
                  JOINT LeftHandIndex1
                  {
                    OFFSET 3.247555 -0.531998 2.296169
                    CHANNELS 3 Zrotation Yrotation Xrotation
                    JOINT LeftHandIndex2
                    {
                      OFFSET 6.364578 0.01206 0.1786
                      CHANNELS 3 Zrotation Yrotation Xrotation
                      JOINT LeftHandIndex3
                      {
                        OFFSET 3.662364 0.0 0.0
                        CHANNELS 3 Zrotation Yrotation Xrotation
                        JOINT LeftHandIndex4
                        {
                          OFFSET 2.329242 4e-06 4e-06
                          CHANNELS 3 Zrotation Yrotation Xrotation
                          JOINT LeftHandIndexEnd
                          {
                            OFFSET 2.759615 -0.180537 -0.113024
                            CHANNELS 3 Zrotation Yrotation Xrotation
                          }
                        }
                      }
                    }
                  }
                  JOINT LeftHandMiddle1
                  {
                    OFFSET 3.163495 0.240981 1.000332
                    CHANNELS 3 Zrotation Yrotation Xrotation
                    JOINT LeftHandMiddle2
                    {
                      OFFSET 6.19078 -0.259278 -1.002548
                      CHANNELS 3 Zrotation Yrotation Xrotation
                      JOINT LeftHandMiddle3
                      {
                        OFFSET 4.35652 -4e-06 -1e-06
                        CHANNELS 3 Zrotation Yrotation Xrotation
                        JOINT LeftHandMiddle4
                        {
                          OFFSET 2.996877 -8e-06 0.0
                          CHANNELS 3 Zrotation Yrotation Xrotation
                          JOINT LeftHandMiddleEnd
                          {
                            OFFSET 2.304287 -0.294569 -0.031741
                            CHANNELS 3 Zrotation Yrotation Xrotation
                          }
                        }
                      }
                    }
                  }
                  JOINT LeftHandRing1
                  {
                    OFFSET 2.882643 -0.053652 -0.322543
                    CHANNELS 3 Zrotation Yrotation Xrotation
                    JOINT LeftHandRing2
                    {
                      OFFSET 5.854541 -0.486202 -1.373841
                      CHANNELS 3 Zrotation Yrotation Xrotation
                      JOINT LeftHandRing3
                      {
                        OFFSET 4.350578 0.0 3e-06
                        CHANNELS 3 Zrotation Yrotation Xrotation
                        JOINT LeftHandRing4
                        {
                          OFFSET 2.651321 7e-06 2e-06
                          CHANNELS 3 Zrotation Yrotation Xrotation
                          JOINT LeftHandRingEnd
                          {
                            OFFSET 1.936105 0.077687 -7.1e-05
                            CHANNELS 3 Zrotation Yrotation Xrotation
                          }
                        }
                      }
                    }
                  }
                  JOINT LeftHandPinky1
                  {
                    OFFSET 2.8655 -0.310005 -1.600378
                    CHANNELS 3 Zrotation Yrotation Xrotation
                    JOINT LeftHandPinky2
                    {
                      OFFSET 5.087849 -1.331141 -1.77123
                      CHANNELS 3 Zrotation Yrotation Xrotation
                      JOINT LeftHandPinky3
                      {
                        OFFSET 3.070974 4e-06 0.0
                        CHANNELS 3 Zrotation Yrotation Xrotation
                        JOINT LeftHandPinky4
                        {
                          OFFSET 1.549672 0.0 1e-06
                          CHANNELS 3 Zrotation Yrotation Xrotation
                          JOINT LeftHandPinkyEnd
                          {
                            OFFSET 1.944893 -0.157802 0.057219
                            CHANNELS 3 Zrotation Yrotation Xrotation
                          }
                        }
                      }
                    }
                  }
                }
              }
            }
          }
          JOINT RightShoulder
          {
            OFFSET -1.380118 23.180309 5.214158
            CHANNELS 3 Zrotation Yrotation Xrotation
            JOINT RightArm
            {
              OFFSET -15.037196 1.2e-05 -5.545604
              CHANNELS 3 Zrotation Yrotation Xrotation
              JOINT RightForeArm
              {
                OFFSET -28.736639 2e-06 -0.002597
                CHANNELS 3 Zrotation Yrotation Xrotation
                JOINT RightHand
                {
                  OFFSET -27.133619 -0.0 0.002613
                  CHANNELS 3 Zrotation Yrotation Xrotation
                  JOINT RightHandThumb1
                  {
                    OFFSET -2.274032 -1.383988 3.163127
                    CHANNELS 3 Zrotation Yrotation Xrotation
                    JOINT RightHandThumb2
                    {
                      OFFSET -4.011429 -1.827466 1.640914
                      CHANNELS 3 Zrotation Yrotation Xrotation
                      JOINT RightHandThumb3
                      {
                        OFFSET -2.794935 -4e-06 -3e-06
                        CHANNELS 3 Zrotation Yrotation Xrotation
                        JOINT RightHandThumbEnd
                        {
                          OFFSET -3.183852 4e-06 1e-06
                          CHANNELS 3 Zrotation Yrotation Xrotation
                        }
                      }
                    }
                  }
                  JOINT RightHandIndex1
                  {
                    OFFSET -3.253266 -0.520057 2.282866
                    CHANNELS 3 Zrotation Yrotation Xrotation
                    JOINT RightHandIndex2
                    {
                      OFFSET -6.341917 0.012471 0.178266
                      CHANNELS 3 Zrotation Yrotation Xrotation
                      JOINT RightHandIndex3
                      {
                        OFFSET -3.654871 -8e-06 -0.0
                        CHANNELS 3 Zrotation Yrotation Xrotation
                        JOINT RightHandIndex4
                        {
                          OFFSET -2.327586 0.0 1e-06
                          CHANNELS 3 Zrotation Yrotation Xrotation
                          JOINT RightHandIndexEnd
                          {
                            OFFSET -2.76179 -0.180656 -0.113078
                            CHANNELS 3 Zrotation Yrotation Xrotation
                          }
                        }
                      }
                    }
                  }
                  JOINT RightHandMiddle1
                  {
                    OFFSET -3.168106 0.246593 1.00103
                    CHANNELS 3 Zrotation Yrotation Xrotation
                    JOINT RightHandMiddle2
                    {
                      OFFSET -6.180828 -0.258836 -1.000895
                      CHANNELS 3 Zrotation Yrotation Xrotation
                      JOINT RightHandMiddle3
                      {
                        OFFSET -4.348901 0.0 -0.0
                        CHANNELS 3 Zrotation Yrotation Xrotation
                        JOINT RightHandMiddle4
                        {
                          OFFSET -3.00024 -4e-06 -2e-06
                          CHANNELS 3 Zrotation Yrotation Xrotation
                          JOINT RightHandMiddleEnd
                          {
                            OFFSET -2.30252 -0.29437 -0.031706
                            CHANNELS 3 Zrotation Yrotation Xrotation
                          }
                        }
                      }
                    }
                  }
                  JOINT RightHandRing1
                  {
                    OFFSET -2.88569 -0.067952 -0.308858
                    CHANNELS 3 Zrotation Yrotation Xrotation
                    JOINT RightHandRing2
                    {
                      OFFSET -5.854198 -0.48613 -1.373731
                      CHANNELS 3 Zrotation Yrotation Xrotation
                      JOINT RightHandRing3
                      {
                        OFFSET -4.33881 -4e-06 -0.0
                        CHANNELS 3 Zrotation Yrotation Xrotation
                        JOINT RightHandRing4
                        {
                          OFFSET -2.654903 -4e-06 4e-06
                          CHANNELS 3 Zrotation Yrotation Xrotation
                          JOINT RightHandRingEnd
                          {
                            OFFSET -1.933568 0.077527 -5.2e-05
                            CHANNELS 3 Zrotation Yrotation Xrotation
                          }
                        }
                      }
                    }
                  }
                  JOINT RightHandPinky1
                  {
                    OFFSET -2.866425 -0.342796 -1.584145
                    CHANNELS 3 Zrotation Yrotation Xrotation
                    JOINT RightHandPinky2
                    {
                      OFFSET -5.091371 -1.332055 -1.772385
                      CHANNELS 3 Zrotation Yrotation Xrotation
                      JOINT RightHandPinky3
                      {
                        OFFSET -3.062664 -4e-06 1e-06
                        CHANNELS 3 Zrotation Yrotation Xrotation
                        JOINT RightHandPinky4
                        {
                          OFFSET -1.546529 4e-06 -2e-06
                          CHANNELS 3 Zrotation Yrotation Xrotation
                          JOINT RightHandPinkyEnd
                          {
                            OFFSET -1.945119 -0.157718 0.057211
                            CHANNELS 3 Zrotation Yrotation Xrotation
                          }
                        }
                      }
                    }
                  }
                }
              }
            }
          }
        }
      }
    }
    JOINT LeftLeg
    {
      OFFSET 10.043214 -8.434526 2.595655
      CHANNELS 3 Zrotation Yrotation Xrotation
      JOINT LeftShin
      {
        OFFSET -1e-06 -43.221752 -0.802913
        CHANNELS 3 Zrotation Yrotation Xrotation
        JOINT LeftFoot
        {
          OFFSET 1e-06 -42.155094 -3.481523
          CHANNELS 3 Zrotation Yrotation Xrotation
          JOINT LeftToeBase
          {
            OFFSET 0.0 -5.059472 13.231529
            CHANNELS 3 Zrotation Yrotation Xrotation
            JOINT LeftToeEnd
            {
              OFFSET -0.009607 -1.647619 6.513017
              CHANNELS 3 Zrotation Yrotation Xrotation
            }
          }
        }
      }
    }
    JOINT RightLeg
    {
      OFFSET -10.047278 -8.29526 2.620317
      CHANNELS 3 Zrotation Yrotation Xrotation
      JOINT RightShin
      {
        OFFSET 1e-06 -43.362206 -0.805556
        CHANNELS 3 Zrotation Yrotation Xrotation
        JOINT RightFoot
        {
          OFFSET 2e-06 -42.117393 -3.478398
          CHANNELS 3 Zrotation Yrotation Xrotation
          JOINT RightToeBase
          {
            OFFSET -0.0 -5.079609 13.284196
            CHANNELS 3 Zrotation Yrotation Xrotation
            JOINT RightToeEnd
            {
              OFFSET 0.009532 -1.634378 6.460591
              CHANNELS 3 Zrotation Yrotation Xrotation
            }
          }
        }
      }
    }
  }
}
MOTION
Frames: 4
Frame Time: 0.03333333333333333
0.0 0.0 0.0 0.0 -0.0 0.0 -0.139379 98.264236 213.363831 -0.987207 0.711063 -7.635923 -0.106623 -0.247588 -1.363096 -0.529191 -0.664432 -5.380388 0.379609 -2.908662 11.457017 1.83674 2.01955 6.645656 -0.372992 0.692212 -3.502667 2.69491 -0.64499 -8.405115 7.7e-05 -2.2e-05 6e-06 -0.009755 0.029862 0.056853 0.700075 -3.720688 -10.594981 -0.722524 3.792188 -10.590656 -15.341261 -4.354987 15.262469 -48.739864 2.738923 5.657877 -0.631229 -36.092453 0.601102 5.6552 4.222392 -13.278375 -5.882107 9.861285 0.702591 -10.936873 -0.360574 7.156208 -0.0 8.774826 -0.0 -15.948479 17.818012 5.849192 -1.844031 2.498505 -2.507278 -10.1636 4.678946 4.62111 -20.976023 -3e-06 1e-06 -21.226288 2.451697 -3.594002 1e-06 -6e-06 -1e-06 -1.362682 2.240799 -0.746323 -21.334917 0.584911 3.008324 -13.821215 -1e-06 1e-06 -23.887173 -0.249078 -0.839484 -59.836098 2.535348 -1.150276 -0.294025 1.679688 0.833256 -14.21821 0.093214 1.300581 -34.212051 -0.287563 0.967171 -20.033213 0.964537 1.212844 1e-06 -0.0 -1e-06 -3.440388 0.788234 0.501656 -15.928187 -3.16731 2.999708 -6.338827 1e-06 1e-06 -18.123447 3.648184 -4.905671 -3e-06 2e-06 -2e-06 8.497275 8.11569 14.48016 71.585854 0.287428 -11.80704 -0.664921 19.127207 -0.083025 -12.085065 0.918504 -22.517523 2.243543 -5.25504 -3.180158 14.282898 -0.826596 6.952503 -2e-06 -12.690611 2e-06 16.042677 -18.312487 2.720415 1.665666 -1.955922 -2.878299 4.7278 -4.170589 4.993926 11.020531 3e-06 -2e-06 12.109056 -3.735717 -2.866785 -0.0 0.0 -1e-06 1.291986 -1.92855 -1.498089 14.800136 0.567468 3.865607 14.24258 -1.341736 -6.660661 19.631979 0.143926 -0.648247 50.230297 -0.611447 -6.427334 0.35303 -1.51115 -0.031939 20.222801 3.684313 2.316628 18.787283 6e-06 -2e-06 10.751633 -0.479868 1.397905 -1e-06 0.0 0.0 3.273809 0.305946 -0.580111 21.486824 11.830379 2.266131 8.16293 1e-06 -1e-06 18.399092 -3.798985 -4.940579 2e-06 -1e-06 -0.0 -0.012006 -3.780169 -12.450666 0.07872 -0.013212 20.034477 2.378467 4.918111 0.198377 1.660347 -1.874707 -1.320476 -0.0 -0.0 2e-06 1.37115 -3.973057 -10.489828 -0.071352 -0.102344 19.660284 -0.236422 2.201135 -1.566216 -1.414023 0.940802 -1.303387 -0.0 0.0 -1e-06 
0.0 0.0 0.0 0.0 -0.0 0.0 -0.0757 98.698692 214.678879 -0.853356 0.341483 -6.552524 -0.139154 -0.240874 -2.022304 -0.487508 -0.463846 -5.595636 0.154697 -2.862608 11.421393 1.858281 2.058095 4.931966 -0.500787 0.670879 -3.519658 2.611226 -0.695573 -8.846484 7.7e-05 -2.2e-05 6e-06 0.003126 0.066751 0.040116 0.723817 -3.686651 -10.588051 -0.721063 3.8287 -10.587976 -16.50716 -4.12967 15.118421 -49.391323 3.120751 7.304479 -0.967739 -33.138657 0.667478 2.849091 2.95481 -12.489758 -5.882109 9.861285 0.702589 -10.936876 -0.360575 7.156204 1e-06 8.774826 0.0 -16.069 17.76395 5.718673 -1.844033 2.498505 -2.507279 -10.163604 4.678945 4.621108 -20.97603 -3e-06 1e-06 -21.226295 2.451697 -3.594 1e-06 -6e-06 -0.0 -1.362682 2.240796 -0.746324 -21.334923 0.58491 3.008322 -13.82122 -4e-06 0.0 -23.88718 -0.24908 -0.839484 -60.071938 2.50166 -1.223738 -0.294025 1.679686 0.833256 -14.218212 0.093214 1.300579 -34.212063 -0.287567 0.967168 -20.033215 0.964536 1.212844 2e-06 -1e-06 -1e-06 -3.44039 0.788233 0.501655 -15.928192 -3.16731 2.999706 -6.338829 -1e-06 1e-06 -18.123453 3.648181 -4.905674 -5e-06 0.0 -2e-06 9.24568 8.102943 14.745708 72.77224 -2.650276 -10.599459 -0.262892 17.374971 0.053956 -6.281748 1.625819 -20.774734 2.243541 -5.255037 -3.180157 14.282892 -0.826595 6.952502 -2e-06 -12.690605 1e-06 16.129574 -18.301319 2.745154 1.665667 -1.955921 -2.878298 4.727798 -4.170588 4.993924 11.020528 3e-06 -1e-06 12.109054 -3.735716 -2.866785 -0.0 0.0 -1e-06 1.291986 -1.92855 -1.498088 14.800131 0.567468 3.865608 14.242573 -1.341737 -6.660658 19.631969 0.143927 -0.648246 50.405941 -0.508014 -6.484501 0.35303 -1.511151 -0.031941 20.222794 3.684309 2.316629 18.787273 5e-06 -2e-06 10.751629 -0.479869 1.397906 -1e-06 -1e-06 1e-06 3.273807 0.305947 -0.58011 21.486814 11.830376 2.266131 8.162928 0.0 -0.0 18.399086 -3.798987 -4.940579 6e-06 0.0 -1e-06 -0.10742 -3.554888 -11.864514 0.076461 0.011737 18.408136 2.406304 5.346147 0.170479 1.659392 -1.843621 -1.328853 -0.0 -0.0 2e-06 1.228831 -5.067531 -9.972292 -0.090209 -0.144701 18.000443 0.125155 2.972281 -1.482459 -1.421974 0.916515 -1.625809 -0.0 -0.0 -1e-06 
0.0 0.0 0.0 0.0 -0.0 0.0 0.068611 99.015884 215.735916 -0.813297 0.342728 -5.557796 -0.181939 -0.209676 -2.46386 -0.47307 -0.407963 -5.757942 -0.004648 -2.839907 11.420596 2.044454 2.01644 3.302472 -0.623448 0.605628 -3.538009 2.422059 -0.614593 -9.262986 7.7e-05 -2.2e-05 6e-06 0.014199 0.078564 0.028034 0.747259 -3.674135 -10.588027 -0.723164 3.836967 -10.584458 -17.321201 -4.119433 15.102443 -50.535385 2.392143 7.941415 -1.13936 -29.871603 0.690199 1.212756 2.132559 -11.220987 -5.882107 9.861286 0.70259 -10.936872 -0.360575 7.156202 0.0 8.774826 -0.0 -16.249334 17.805702 5.616361 -1.844033 2.498505 -2.507278 -10.163601 4.678946 4.621108 -20.976025 -3e-06 1e-06 -21.226292 2.451698 -3.594002 1e-06 -6e-06 -0.0 -1.362682 2.240798 -0.746323 -21.334913 0.58491 3.008322 -13.821215 -2e-06 1e-06 -23.887171 -0.249078 -0.839485 -60.281029 2.461368 -1.301836 -0.294025 1.679686 0.833256 -14.218209 0.093215 1.30058 -34.212051 -0.287563 0.967169 -20.033215 0.964536 1.212842 -0.0 -1e-06 -1e-06 -3.440389 0.788234 0.501654 -15.928185 -3.167309 2.999705 -6.338826 -1e-06 1e-06 -18.123444 3.648184 -4.905671 -4e-06 -0.0 -2e-06 10.050573 7.999399 14.928515 73.113121 -4.743267 -8.421103 0.224784 16.000542 0.202095 -1.268285 2.322512 -17.685251 2.243542 -5.255039 -3.180159 14.282896 -0.826594 6.952506 -4e-06 -12.690611 1e-06 16.126783 -18.104305 2.672841 1.665666 -1.955922 -2.878299 4.7278 -4.170588 4.993925 11.020529 3e-06 -0.0 12.109056 -3.735717 -2.866785 0.0 0.0 0.0 1.291986 -1.92855 -1.498089 14.800132 0.567469 3.865609 14.242576 -1.341738 -6.660658 19.631973 0.143928 -0.648244 50.310574 -0.388807 -6.438908 0.353029 -1.511151 -0.03194 20.222799 3.684312 2.316633 18.787279 6e-06 1e-06 10.751633 -0.479868 1.397906 -1e-06 -0.0 0.0 3.273808 0.305947 -0.580112 21.48682 11.830382 2.266135 8.16293 2e-06 0.0 18.399092 -3.798988 -4.940577 1e-06 0.0 -0.0 -0.21635 -3.054921 -11.625035 0.06462 0.014983 17.206177 2.146643 5.209331 0.088329 1.64934 -1.841101 -1.250143 -0.0 0.0 2e-06 1.093795 -6.203225 -9.68929 -0.093768 -0.167836 16.705875 0.788254 3.663225 -1.413256 -1.429702 0.898696 -1.74919 0.0 -0.0 -1e-06 
0.0 0.0 0.0 0.0 -0.0 0.0 0.254072 99.218246 216.615372 -0.87643 0.635816 -4.72896 -0.248487 -0.171206 -2.742539 -0.500313 -0.447356 -5.85798 -0.069377 -2.846443 11.501169 2.371194 1.894484 1.954785 -0.666945 0.583927 -3.54825 2.153967 -0.490081 -9.520741 7.7e-05 -2.3e-05 6e-06 0.017984 0.069481 0.021295 0.755839 -3.675216 -10.566611 -0.724448 3.818683 -10.554256 -17.994123 -4.348136 15.169397 -51.798367 0.680723 7.891221 -1.042245 -26.150345 0.576152 0.663375 2.020734 -9.926866 -5.882107 9.861288 0.702591 -10.93687 -0.360574 7.156203 -1e-06 8.774826 -2e-06 -16.406973 17.862288 5.61833 -1.844032 2.498506 -2.507277 -10.163599 4.678946 4.621106 -20.976021 -2e-06 -0.0 -21.226284 2.451699 -3.594002 0.0 -6e-06 -1e-06 -1.362682 2.240798 -0.746324 -21.334913 0.584911 3.008321 -13.821213 -1e-06 2e-06 -23.887171 -0.249078 -0.839485 -60.427532 2.43686 -1.338569 -0.294024 1.679688 0.833256 -14.218207 0.093216 1.300581 -34.212048 -0.287563 0.967168 -20.033213 0.964536 1.212842 -0.0 -1e-06 -0.0 -3.440388 0.788234 0.501655 -15.928185 -3.16731 2.999704 -6.338825 -1e-06 1e-06 -18.123444 3.648185 -4.90567 -3e-06 0.0 -1e-06 10.938639 7.942684 15.048163 72.729164 -5.726514 -6.619967 0.767833 14.384476 0.314699 2.263198 2.240644 -14.033281 2.243541 -5.255037 -3.180155 14.28289 -0.826593 6.952501 -3e-06 -12.690608 -1e-06 15.935844 -17.888861 2.639509 1.665666 -1.955922 -2.878298 4.727797 -4.170588 4.993922 11.020524 4e-06 -0.0 12.109051 -3.735717 -2.866782 0.0 0.0 -0.0 1.291985 -1.928549 -1.498088 14.800125 0.56747 3.865607 14.242569 -1.341737 -6.660655 19.631968 0.143927 -0.648243 49.999039 -0.250172 -6.369423 0.353029 -1.511151 -0.03194 20.222788 3.684313 2.31663 18.78727 6e-06 0.0 10.751627 -0.479867 1.397906 -2e-06 0.0 0.0 3.273806 0.305947 -0.580111 21.486811 11.83038 2.266136 8.162926 2e-06 -0.0 18.399076 -3.798984 -4.940575 1e-06 -0.0 -1e-06 -0.284056 -2.229142 -11.677264 0.044068 0.032552 16.629438 1.705005 4.488343 -0.200468 1.633084 -1.866071 -1.173306 -0.0 -0.0 2e-06 1.013903 -7.054667 -9.549211 -0.072408 -0.172799 15.86841 1.40202 4.013646 -1.489414 -1.434198 0.893449 -1.676754 0.0 -0.0 -1e-06 
